<svg id="visual" viewBox="0 0 900 600" width="900" height="600" xmlns="http://www.w3.org/2000/svg" xmlns:xlink="http://www.w3.org/1999/xlink" version="1.1"><rect x="0" y="0" width="900" height="600" fill="#95E1D3"></rect><defs><linearGradient id="grad1_0" x1="33.3%" y1="0%" x2="100%" y2="100%"><stop offset="20%" stop-color="#eaffd0" stop-opacity="1"></stop><stop offset="80%" stop-color="#eaffd0" stop-opacity="1"></stop></linearGradient></defs><defs><linearGradient id="grad1_1" x1="33.3%" y1="0%" x2="100%" y2="100%"><stop offset="20%" stop-color="#eaffd0" stop-opacity="1"></stop><stop offset="80%" stop-color="#d4f8ce" stop-opacity="1"></stop></linearGradient></defs><defs><linearGradient id="grad1_2" x1="33.3%" y1="0%" x2="100%" y2="100%"><stop offset="20%" stop-color="#bef1cf" stop-opacity="1"></stop><stop offset="80%" stop-color="#d4f8ce" stop-opacity="1"></stop></linearGradient></defs><defs><linearGradient id="grad1_3" x1="33.3%" y1="0%" x2="100%" y2="100%"><stop offset="20%" stop-color="#bef1cf" stop-opacity="1"></stop><stop offset="80%" stop-color="#a8e9d0" stop-opacity="1"></stop></linearGradient></defs><defs><linearGradient id="grad1_4" x1="33.3%" y1="0%" x2="100%" y2="100%"><stop offset="20%" stop-color="#95e1d3" stop-opacity="1"></stop><stop offset="80%" stop-color="#a8e9d0" stop-opacity="1"></stop></linearGradient></defs><defs><linearGradient id="grad2_0" x1="0%" y1="0%" x2="66.7%" y2="100%"><stop offset="20%" stop-color="#eaffd0" stop-opacity="1"></stop><stop offset="80%" stop-color="#eaffd0" stop-opacity="1"></stop></linearGradient></defs><defs><linearGradient id="grad2_1" x1="0%" y1="0%" x2="66.7%" y2="100%"><stop offset="20%" stop-color="#d4f8ce" stop-opacity="1"></stop><stop offset="80%" stop-color="#eaffd0" stop-opacity="1"></stop></linearGradient></defs><defs><linearGradient id="grad2_2" x1="0%" y1="0%" x2="66.7%" y2="100%"><stop offset="20%" stop-color="#d4f8ce" stop-opacity="1"></stop><stop offset="80%" stop-color="#bef1cf" stop-opacity="1"></stop></linearGradient></defs><defs><linearGradient id="grad2_3" x1="0%" y1="0%" x2="66.7%" y2="100%"><stop offset="20%" stop-color="#a8e9d0" stop-opacity="1"></stop><stop offset="80%" stop-color="#bef1cf" stop-opacity="1"></stop></linearGradient></defs><defs><linearGradient id="grad2_4" x1="0%" y1="0%" x2="66.7%" y2="100%"><stop offset="20%" stop-color="#a8e9d0" stop-opacity="1"></stop><stop offset="80%" stop-color="#95e1d3" stop-opacity="1"></stop></linearGradient></defs><g transform="translate(900, 0)"><path d="M0 486.7C-50.5 482.3 -101 477.8 -150.4 462.9C-199.8 448 -248 422.8 -280.4 385.9C-312.7 349.1 -329.1 300.6 -359.2 261C-389.3 221.3 -433 190.4 -456.5 148.3C-480 106.3 -483.4 53.1 -486.7 0L0 0Z" fill="#9ee5d2"></path><path d="M0 389.4C-40.4 385.8 -80.8 382.2 -120.3 370.3C-159.8 358.4 -198.4 338.2 -224.3 308.7C-250.2 279.2 -263.3 240.5 -287.4 208.8C-311.4 177 -346.4 152.3 -365.2 118.7C-384 85 -386.7 42.5 -389.4 0L0 0Z" fill="#b3edcf"></path><path d="M0 292C-30.3 289.4 -60.6 286.7 -90.2 277.8C-119.9 268.8 -148.8 253.7 -168.2 231.5C-187.6 209.4 -197.5 180.4 -215.5 156.6C-233.6 132.8 -259.8 114.2 -273.9 89C-288 63.8 -290 31.9 -292 0L0 0Z" fill="#c8f5ce"></path><path d="M0 194.7C-20.2 192.9 -40.4 191.1 -60.2 185.2C-79.9 179.2 -99.2 169.1 -112.1 154.4C-125.1 139.6 -131.7 120.3 -143.7 104.4C-155.7 88.5 -173.2 76.1 -182.6 59.3C-192 42.5 -193.4 21.3 -194.7 0L0 0Z" fill="#dffccf"></path><path d="M0 97.3C-10.1 96.5 -20.2 95.6 -30.1 92.6C-40 89.6 -49.6 84.6 -56.1 77.2C-62.5 69.8 -65.8 60.1 -71.8 52.2C-77.9 44.3 -86.6 38.1 -91.3 29.7C-96 21.3 -96.7 10.6 -97.3 0L0 0Z" fill="#eaffd0"></path></g><g transform="translate(0, 600)"><path d="M0 -486.7C52.9 -484.6 105.8 -482.5 150.4 -462.9C195.1 -443.3 231.5 -406.2 272.1 -374.6C312.8 -342.9 357.8 -316.7 381.9 -277.4C406 -238.2 409.2 -185.9 423.2 -137.5C437.2 -89.1 462 -44.6 486.7 0L0 0Z" fill="#9ee5d2"></path><path d="M0 -389.4C42.3 -387.7 84.6 -386 120.3 -370.3C156 -354.7 185.2 -325 217.7 -299.7C250.3 -274.3 286.2 -253.3 305.5 -221.9C324.8 -190.5 327.4 -148.7 338.6 -110C349.8 -71.3 369.6 -35.6 389.4 0L0 0Z" fill="#b3edcf"></path><path d="M0 -292C31.7 -290.8 63.5 -289.5 90.2 -277.8C117 -266 138.9 -243.7 163.3 -224.7C187.7 -205.7 214.7 -190 229.1 -166.5C243.6 -142.9 245.5 -111.6 253.9 -82.5C262.3 -53.5 277.2 -26.7 292 0L0 0Z" fill="#c8f5ce"></path><path d="M0 -194.7C21.2 -193.9 42.3 -193 60.2 -185.2C78 -177.3 92.6 -162.5 108.9 -149.8C125.1 -137.2 143.1 -126.7 152.7 -111C162.4 -95.3 163.7 -74.4 169.3 -55C174.9 -35.6 184.8 -17.8 194.7 0L0 0Z" fill="#dffccf"></path><path d="M0 -97.3C10.6 -96.9 21.2 -96.5 30.1 -92.6C39 -88.7 46.3 -81.2 54.4 -74.9C62.6 -68.6 71.6 -63.3 76.4 -55.5C81.2 -47.6 81.8 -37.2 84.6 -27.5C87.4 -17.8 92.4 -8.9 97.3 0L0 0Z" fill="#eaffd0"></path></g></svg>